<?xml version="1.0" encoding="utf-8"?>
<!-- Generator: Adobe Illustrator 23.0.1, SVG Export Plug-In . SVG Version: 6.00 Build 0)  -->
<svg version="1.1" id="Layer_1" xmlns="http://www.w3.org/2000/svg" xmlns:xlink="http://www.w3.org/1999/xlink" x="0px" y="0px"
	 viewBox="0 0 713 713" style="enable-background:new 0 0 713 713;" xml:space="preserve">
<style type="text/css">
	.st0{fill:#FFFFFF;}
</style>
<path class="st0" d="M85,405.35c-6.14,2.88-8.85,10.13-6.11,16.33l28.04,60.19c1.38,3,3.89,5.33,6.98,6.48
	c1.35,0.49,2.79,0.75,4.23,0.75c1.81,0.02,3.59-0.37,5.23-1.12l211.83-98.94l-19.19,200.61c-0.37,3.95,1.15,7.83,4.11,10.47
	c9.29,7.69,20.86,12.07,32.9,12.46c3.32,0,6.62-0.42,9.84-1.24c17.2-4.49,30.53-19.81,39.63-45.98l83.36-246.84l165.1-77.01
	c48.6-22.68,73.64-68.65,56.82-104.54c-9.54-18.76-27.83-31.52-48.72-34.02c-23.22-3.5-46.95,0.15-68.03,10.47l-190.53,89.34
	l-204.85-80.12c-25.8-9.72-46.23-9.47-60.56,0.88c-12.02,9.86-18.86,24.69-18.57,40.24c0.12,3.95,2.11,7.59,5.36,9.85l137.94,94.82
	l-78.99,37.38L48.36,272.16c-5.43-1.33-11.08,1.11-13.83,5.98L1.51,337.57c-1.71,3.15-1.98,6.89-0.74,10.25
	c1.24,3.37,3.87,6.03,7.22,7.32l98.06,40.5L85,405.35z M142.06,157.52c0.73-5.27,3.4-10.06,7.48-13.46
	c7.11-5.11,20.06-4.36,37.38,2.11l182.42,71.15l-83.24,38.88L142.06,157.52z M29.92,337.45l21.68-38.5l127.47,31.65
	c2.75,0.69,5.65,0.43,8.23-0.74l414.31-193.51c16.47-8.12,35.02-11.08,53.21-8.48c12.75,1.17,24.11,8.53,30.41,19.69
	c10.46,22.43-10.1,55.2-44.87,71.4l-143.54,67.29l8.73-25.8c2.2-6.64-1.4-13.81-8.03-16.01c-6.65-2.2-13.81,1.4-16.01,8.04
	L378.94,557.62c-6.11,17.33-13.71,27.67-22.18,29.91c-5.25,1.01-10.68-0.02-15.2-2.86l24.92-261.68
	c0.65-6.88-4.39-12.99-11.28-13.64c-6.88-0.66-12.99,4.39-13.64,11.27l-3.86,40l-213.83,99.68l-17.56-37.38l35.13-16.44
	c4.52-1.99,7.44-6.47,7.44-11.4c0-4.94-2.91-9.41-7.44-11.4L29.92,337.45z"/>
</svg>
