<?xml version="1.0" encoding="utf-8"?>
<!-- Generator: Adobe Illustrator 23.0.1, SVG Export Plug-In . SVG Version: 6.00 Build 0)  -->
<svg version="1.1" id="Layer_1" xmlns="http://www.w3.org/2000/svg" xmlns:xlink="http://www.w3.org/1999/xlink" x="0px" y="0px"
	 viewBox="0 0 262.6 263.6" style="enable-background:new 0 0 262.6 263.6;" xml:space="preserve">
<style type="text/css">
	.st0{fill:#FFFFFF;}
	.st1{fill:none;stroke:#FFFFFF;stroke-width:16;stroke-miterlimit:10;}
</style>
<circle class="st0" cx="131.1" cy="112.9" r="50.5"/>
<path class="st0" d="M131.1,257.2c-25.4-0.6-42.3-8.9-52.6-14.5s-34-29-34.3-37.2c-0.3-8.2,18.3-25,18.3-25
	c7.9-5.5,16.1-12.3,33.5-13.2c5.3,1.2,8.7,6.6,19.6,9.5c0,0,6.3,2.4,15.6,2.4s15.6-2.4,15.6-2.4c10.9-2.9,14.3-8.3,19.6-9.5
	c17.3,1,25.5,7.7,33.5,13.2c0,0,18.6,16.8,18.3,25c-0.3,8.2-24.1,31.6-34.3,37.2C173.4,248.3,156.5,256.6,131.1,257.2"/>
<circle class="st1" cx="131.2" cy="131.8" r="120.4"/>
</svg>
